<svg xmlns="http://www.w3.org/2000/svg" xmlns:xlink="http://www.w3.org/1999/xlink" version="1.1" width="256" height="256" viewBox="0 0 256 256" xml:space="preserve">

<defs>
</defs>
<g style="stroke: none; stroke-width: 0; stroke-dasharray: none; stroke-linecap: butt; stroke-linejoin: miter; stroke-miterlimit: 10; fill: none; fill-rule: nonzero; opacity: 1;" transform="translate(1.4065934065934016 1.4065934065934016) scale(2.81 2.81)" >
	<path d="M 54.556 90 H 34.283 c -2.22 0 -4.047 -1.806 -4.071 -4.026 l -0.089 -7.913 c -0.001 -0.088 -0.082 -0.153 -0.152 -0.183 c -2.82 -1.195 -5.483 -2.739 -7.917 -4.59 c -0.042 -0.032 -0.094 -0.044 -0.119 -0.031 l -6.869 3.965 c -1.941 1.123 -4.433 0.451 -5.556 -1.492 l -8.867 -15.36 c -0.543 -0.94 -0.689 -2.036 -0.411 -3.083 c 0.279 -1.051 0.953 -1.93 1.896 -2.475 l 6.869 -3.965 c 0.024 -0.014 0.038 -0.066 0.032 -0.12 c -0.385 -3.033 -0.391 -6.111 -0.017 -9.15 c 0.009 -0.076 -0.007 -0.179 -0.082 -0.224 L 2.121 37.32 c -1.91 -1.131 -2.561 -3.616 -1.451 -5.538 l 10.137 -17.557 c 0.549 -0.951 1.435 -1.628 2.496 -1.906 c 1.059 -0.279 2.158 -0.123 3.099 0.435 l 6.77 4.01 c 0.024 0.015 0.076 0 0.12 -0.033 c 1.235 -0.94 2.545 -1.811 3.894 -2.588 c 1.345 -0.778 2.754 -1.477 4.187 -2.077 c 0.051 -0.021 0.088 -0.058 0.088 -0.088 l -0.088 -7.867 c -0.012 -1.095 0.405 -2.125 1.174 -2.903 C 33.317 0.429 34.346 0 35.444 0 h 20.273 c 2.22 0 4.046 1.806 4.071 4.026 l 0.089 7.913 c 0.001 0.087 0.083 0.153 0.152 0.182 c 2.821 1.196 5.484 2.74 7.917 4.589 c 0.045 0.034 0.093 0.045 0.122 0.032 l 6.867 -3.965 c 0.941 -0.544 2.04 -0.687 3.09 -0.404 c 1.047 0.283 1.923 0.957 2.465 1.898 l 8.868 15.358 c 1.122 1.945 0.456 4.438 -1.485 5.558 l -6.868 3.965 c -0.025 0.015 -0.039 0.066 -0.032 0.12 c 0.385 3.034 0.391 6.113 0.017 9.15 c -0.01 0.076 0.006 0.178 0.081 0.222 l 6.81 4.034 c 1.909 1.131 2.56 3.615 1.451 5.538 L 79.194 75.776 c -0.55 0.951 -1.435 1.627 -2.495 1.905 c -1.057 0.279 -2.158 0.124 -3.101 -0.434 l -6.769 -4.011 c -0.032 -0.016 -0.084 0.004 -0.122 0.032 c -1.241 0.944 -2.551 1.814 -3.893 2.588 c -1.354 0.782 -2.763 1.48 -4.189 2.077 c -0.049 0.021 -0.086 0.058 -0.086 0.089 l 0.088 7.867 c 0.013 1.092 -0.403 2.123 -1.171 2.901 C 56.685 89.57 55.655 90 54.556 90 z M 21.96 69.26 c 0.882 0 1.765 0.286 2.509 0.851 c 2.171 1.65 4.545 3.027 7.06 4.093 c 1.552 0.659 2.567 2.156 2.585 3.813 l 0.089 7.913 c 0 0.044 0.036 0.079 0.08 0.079 h 20.273 l 0.08 -0.074 l -0.088 -7.867 c -0.019 -1.662 0.976 -3.159 2.535 -3.814 c 1.273 -0.533 2.53 -1.156 3.737 -1.853 h 0.001 c 1.196 -0.69 2.363 -1.466 3.47 -2.308 c 1.347 -1.024 3.141 -1.137 4.571 -0.289 l 6.77 4.01 l 1.833 0.966 l -1.729 -0.998 l 10.137 -17.557 c 0.022 -0.037 0.01 -0.087 -0.028 -0.109 l -6.809 -4.033 c -1.427 -0.845 -2.216 -2.472 -2.009 -4.145 c 0.334 -2.708 0.329 -5.454 -0.015 -8.159 c -0.21 -1.657 0.574 -3.258 1.997 -4.08 l 6.868 -3.966 c 0.037 -0.021 0.047 -0.066 0.023 -0.106 l -8.868 -15.358 c -0.018 -0.031 -0.073 -0.051 -0.101 -0.033 l -6.869 3.966 c -1.427 0.823 -3.204 0.7 -4.532 -0.312 c -2.168 -1.648 -4.543 -3.025 -7.059 -4.091 c -1.55 -0.657 -2.565 -2.153 -2.585 -3.81 l -0.089 -7.915 c 0 -0.044 -0.036 -0.079 -0.08 -0.079 H 35.444 l -2.076 0.097 l 1.996 -0.022 l 0.088 7.868 c 0.019 1.663 -0.977 3.161 -2.537 3.814 c -1.277 0.535 -2.533 1.158 -3.734 1.852 c -1.203 0.694 -2.371 1.47 -3.473 2.309 c -1.347 1.024 -3.14 1.137 -4.571 0.29 l -6.77 -4.011 l -1.833 -0.965 l 1.728 0.998 L 4.127 33.777 c -0.021 0.038 -0.009 0.086 0.029 0.109 l 6.809 4.033 c 1.426 0.845 2.215 2.472 2.008 4.145 c -0.333 2.711 -0.328 5.456 0.015 8.16 c 0.21 1.656 -0.573 3.257 -1.995 4.079 l -6.869 3.965 c -0.032 0.019 -0.042 0.075 -0.024 0.106 l 8.867 15.359 c 0.023 0.039 0.067 0.054 0.104 0.032 l 6.868 -3.965 C 20.566 69.438 21.263 69.26 21.96 69.26 z" style="stroke: none; stroke-width: 1; stroke-dasharray: none; stroke-linecap: butt; stroke-linejoin: miter; stroke-miterlimit: 10; fill: rgb(255,255,255); fill-rule: nonzero; opacity: 1;" transform=" matrix(1 0 0 1 0 0) " stroke-linecap="round" />
	<path d="M 45.025 59.52 c -5.023 0 -9.915 -2.604 -12.602 -7.258 c -1.94 -3.36 -2.455 -7.274 -1.451 -11.02 c 1.004 -3.747 3.407 -6.879 6.767 -8.819 c 3.361 -1.939 7.274 -2.455 11.02 -1.451 c 3.747 1.004 6.879 3.407 8.819 6.767 c 4.003 6.935 1.62 15.834 -5.316 19.839 C 49.981 58.894 47.487 59.52 45.025 59.52 z M 44.983 34.464 c -1.825 0 -3.626 0.478 -5.249 1.415 c -5.029 2.903 -6.759 9.357 -3.855 14.387 c 2.903 5.028 9.357 6.76 14.387 3.854 c 5.028 -2.903 6.758 -9.357 3.854 -14.386 l 0 0 c -1.406 -2.436 -3.678 -4.179 -6.395 -4.907 C 46.818 34.584 45.897 34.464 44.983 34.464 z" style="stroke: none; stroke-width: 1; stroke-dasharray: none; stroke-linecap: butt; stroke-linejoin: miter; stroke-miterlimit: 10; fill: rgb(255,255,255); fill-rule: nonzero; opacity: 1;" transform=" matrix(1 0 0 1 0 0) " stroke-linecap="round" />
</g>
</svg>