<svg xmlns="http://www.w3.org/2000/svg" xmlns:xlink="http://www.w3.org/1999/xlink" version="1.1" width="256" height="256" viewBox="0 0 256 256" xml:space="preserve">

<defs>
</defs>
<g style="stroke: none; stroke-width: 0; stroke-dasharray: none; stroke-linecap: butt; stroke-linejoin: miter; stroke-miterlimit: 10; fill: none; fill-rule: nonzero; opacity: 1;" transform="translate(1.4065934065934016 1.4065934065934016) scale(2.81 2.81)" >
	<path d="M 51.967 72.19 c -0.493 0 -0.979 -0.183 -1.356 -0.53 L 35.059 57.305 H 18.125 c -1.104 0 -2 -0.896 -2 -2 V 34.696 c 0 -1.104 0.896 -2 2 -2 h 16.934 L 50.61 18.339 c 0.585 -0.539 1.434 -0.679 2.158 -0.362 c 0.729 0.318 1.198 1.038 1.198 1.832 V 70.19 c 0 0.794 -0.47 1.514 -1.198 1.832 C 52.511 72.136 52.238 72.19 51.967 72.19 z M 20.125 53.305 h 15.716 c 0.503 0 0.987 0.189 1.356 0.53 l 12.769 11.787 V 24.377 L 37.198 36.166 c -0.369 0.341 -0.854 0.53 -1.356 0.53 H 20.125 V 53.305 z" style="stroke: none; stroke-width: 1; stroke-dasharray: none; stroke-linecap: butt; stroke-linejoin: miter; stroke-miterlimit: 10; fill: rgb(0,0,0); fill-rule: nonzero; opacity: 1;" transform=" matrix(1 0 0 1 0 0) " stroke-linecap="round" />
	<path d="M 71.875 53.076 c -0.512 0 -1.023 -0.195 -1.414 -0.586 L 58.308 40.337 c -0.781 -0.781 -0.781 -2.047 0 -2.828 c 0.781 -0.781 2.047 -0.781 2.828 0 l 12.153 12.153 c 0.781 0.781 0.781 2.047 0 2.828 C 72.898 52.881 72.387 53.076 71.875 53.076 z" style="stroke: none; stroke-width: 1; stroke-dasharray: none; stroke-linecap: butt; stroke-linejoin: miter; stroke-miterlimit: 10; fill: rgb(0,0,0); fill-rule: nonzero; opacity: 1;" transform=" matrix(1 0 0 1 0 0) " stroke-linecap="round" />
	<path d="M 59.722 53.076 c -0.512 0 -1.023 -0.195 -1.414 -0.586 c -0.781 -0.781 -0.781 -2.047 0 -2.828 l 12.153 -12.153 c 0.781 -0.781 2.047 -0.781 2.828 0 c 0.781 0.781 0.781 2.047 0 2.828 L 61.136 52.49 C 60.745 52.881 60.233 53.076 59.722 53.076 z" style="stroke: none; stroke-width: 1; stroke-dasharray: none; stroke-linecap: butt; stroke-linejoin: miter; stroke-miterlimit: 10; fill: rgb(0,0,0); fill-rule: nonzero; opacity: 1;" transform=" matrix(1 0 0 1 0 0) " stroke-linecap="round" />
	<path d="M 45 90 C 20.187 90 0 69.813 0 45 C 0 20.187 20.187 0 45 0 c 24.813 0 45 20.187 45 45 C 90 69.813 69.813 90 45 90 z M 45 4 C 22.393 4 4 22.393 4 45 s 18.393 41 41 41 s 41 -18.393 41 -41 S 67.607 4 45 4 z" style="stroke: none; stroke-width: 1; stroke-dasharray: none; stroke-linecap: butt; stroke-linejoin: miter; stroke-miterlimit: 10; fill: rgb(0,0,0); fill-rule: nonzero; opacity: 1;" transform=" matrix(1 0 0 1 0 0) " stroke-linecap="round" />
</g>
</svg>