<svg xmlns="http://www.w3.org/2000/svg" xmlns:xlink="http://www.w3.org/1999/xlink" version="1.1" width="256" height="256" viewBox="0 0 256 256" xml:space="preserve">

<defs>
</defs>
<g style="stroke: none; stroke-width: 0; stroke-dasharray: none; stroke-linecap: butt; stroke-linejoin: miter; stroke-miterlimit: 10; fill: none; fill-rule: nonzero; opacity: 1;" transform="translate(1.4065934065934016 1.4065934065934016) scale(2.81 2.81)" >
	<path d="M 57.921 72.19 c -0.493 0 -0.979 -0.183 -1.356 -0.53 L 41.014 57.305 H 24.079 c -1.104 0 -2 -0.896 -2 -2 V 34.696 c 0 -1.104 0.896 -2 2 -2 h 16.935 l 15.551 -14.356 c 0.585 -0.539 1.433 -0.679 2.158 -0.362 c 0.729 0.318 1.198 1.038 1.198 1.832 V 70.19 c 0 0.794 -0.47 1.514 -1.198 1.832 C 58.465 72.136 58.192 72.19 57.921 72.19 z M 26.079 53.305 h 15.717 c 0.503 0 0.987 0.189 1.356 0.53 l 12.769 11.787 V 24.377 L 43.152 36.166 c -0.369 0.341 -0.854 0.53 -1.356 0.53 H 26.079 V 53.305 z" style="stroke: none; stroke-width: 1; stroke-dasharray: none; stroke-linecap: butt; stroke-linejoin: miter; stroke-miterlimit: 10; fill: rgb(0,0,0); fill-rule: nonzero; opacity: 1;" transform=" matrix(1 0 0 1 0 0) " stroke-linecap="round" />
	<path d="M 45 90 C 20.187 90 0 69.813 0 45 C 0 20.187 20.187 0 45 0 c 24.813 0 45 20.187 45 45 C 90 69.813 69.813 90 45 90 z M 45 4 C 22.393 4 4 22.393 4 45 s 18.393 41 41 41 s 41 -18.393 41 -41 S 67.607 4 45 4 z" style="stroke: none; stroke-width: 1; stroke-dasharray: none; stroke-linecap: butt; stroke-linejoin: miter; stroke-miterlimit: 10; fill: rgb(0,0,0); fill-rule: nonzero; opacity: 1;" transform=" matrix(1 0 0 1 0 0) " stroke-linecap="round" />
</g>
</svg>